<svg width="294" height="51" viewBox="0 0 294 51" fill="none" xmlns="http://www.w3.org/2000/svg">
<g clip-path="url(#clip0_2_126)">
<path d="M42 15.8628H50.2657C51.0946 15.8613 51.9213 15.9486 52.7312 16.1233C53.5425 16.2697 54.322 16.5544 55.0351 16.9648C55.7117 17.3719 56.2854 17.927 56.7125 18.5876C57.1723 19.3704 57.3967 20.2671 57.3592 21.1722C57.3927 22.2022 57.0561 23.2104 56.4094 24.0172C55.7579 24.773 54.9027 25.329 53.9438 25.62V25.62C54.5201 25.7182 55.0786 25.9005 55.601 26.161C56.6306 26.6655 57.4365 27.5287 57.8645 28.5853C58.0983 29.1718 58.215 29.7978 58.208 30.4285C58.2428 31.421 58.0053 32.4043 57.5209 33.2735C57.086 34.0207 56.476 34.6529 55.7425 35.1168C54.959 35.5951 54.0972 35.9342 53.1961 36.1186C52.2325 36.3196 51.2504 36.4203 50.2657 36.4191H42V15.8628ZM49.5382 24.0773C50.3078 24.1299 51.0738 23.933 51.7208 23.5163C51.9793 23.3196 52.186 23.0638 52.3232 22.7707C52.4605 22.4777 52.5242 22.1561 52.509 21.8334C52.5317 21.5299 52.468 21.2263 52.3251 20.9571C52.1821 20.6878 51.9657 20.4638 51.7006 20.3107C50.9552 19.9443 50.1259 19.7785 49.2956 19.8298H46.8301V24.0773H49.5382ZM49.6594 32.4521C50.0627 32.4901 50.4687 32.4901 50.872 32.4521C51.2742 32.399 51.664 32.277 52.0239 32.0914C52.4007 31.9158 52.7136 31.6291 52.9198 31.2705C53.126 30.9118 53.2154 30.4988 53.1759 30.0879C53.2087 29.7318 53.1341 29.374 52.9613 29.0601C52.7886 28.7461 52.5256 28.4902 52.2058 28.3248C51.3949 27.9598 50.5089 27.7882 49.619 27.8239H46.8301V32.5322L49.6594 32.4521Z" fill="#CC131B"/>
<path d="M61.5225 15.8628H67.2417L75.5883 29.3065L75.467 15.8628H80.3375V36.4792H74.7799L66.3929 23.0154L66.5142 36.4792H61.5225V15.8628Z" fill="#CC131B"/>
<path d="M83.7327 32.1715L93.6151 20.1503H83.955V15.9229H99.9003V19.9299L89.7955 32.2316H100.123V36.5392H83.7529L83.7327 32.1715Z" fill="#CC131B"/>
<path d="M110.712 15.8626H118.331C119.405 15.8593 120.476 15.9735 121.524 16.2032C122.449 16.3944 123.328 16.7619 124.111 17.2851C124.847 17.797 125.438 18.4867 125.829 19.2887C126.278 20.212 126.493 21.2297 126.455 22.2539C126.49 23.308 126.261 24.3542 125.789 25.2993C125.362 26.1081 124.736 26.7971 123.97 27.3028C123.133 27.7959 122.217 28.1416 121.262 28.3246C120.24 28.551 119.196 28.6652 118.149 28.6652H115.664V36.4389H110.652L110.712 15.8626ZM117.826 24.7583C118.28 24.7599 118.733 24.7196 119.18 24.6381C119.591 24.5614 119.987 24.4193 120.352 24.2174C120.681 24.0344 120.959 23.7727 121.161 23.456C121.358 23.0862 121.455 22.6721 121.443 22.2539C121.46 21.8352 121.362 21.4199 121.161 21.0518C120.957 20.747 120.679 20.4987 120.352 20.3305C120.001 20.142 119.617 20.0197 119.22 19.9699C118.796 19.9699 118.372 19.9699 117.927 19.9699H115.724V24.8385L117.826 24.7583Z" fill="#231916"/>
<path d="M133.913 15.8628H138.783L147.413 36.4792H141.835L140.218 32.4721H132.134L130.598 36.4792H125.142L133.913 15.8628ZM138.844 28.445L136.237 21.3725L133.61 28.445H138.844Z" fill="#231916"/>
<path d="M149.151 15.8628H157.053C158.039 15.8571 159.022 15.9647 159.983 16.1833C160.896 16.3618 161.766 16.7084 162.55 17.2051C163.312 17.7094 163.932 18.3992 164.348 19.2087C164.823 20.1241 165.053 21.1452 165.015 22.1739C165.056 23.4431 164.657 24.6877 163.884 25.7001C163.052 26.6677 161.947 27.3656 160.711 27.7037L166.127 36.5192H160.266L155.78 28.3248H154.082V36.4992H149.151V15.8628ZM156.426 24.6984C156.843 24.7273 157.262 24.7273 157.679 24.6984C158.087 24.6317 158.483 24.5033 158.851 24.3177C159.201 24.1494 159.5 23.8939 159.72 23.5764C159.962 23.1854 160.082 22.7323 160.064 22.2741C160.079 21.863 159.966 21.4573 159.741 21.112C159.545 20.813 159.273 20.5709 158.952 20.4108C158.617 20.2379 158.255 20.1228 157.881 20.0702C157.477 20.0702 157.093 20.0702 156.709 20.0702H154.042V24.8787L156.426 24.6984Z" fill="#231916"/>
<path d="M172.129 20.1103H166.248V15.8628H183.022V20.1103H177.141V36.4792H172.129V20.1103Z" fill="#231916"/>
<path d="M185.326 15.8628H191.045L199.371 29.3266L199.25 15.8628H204.121V36.4792H198.422L190.055 23.0154V36.4792H185.205L185.326 15.8628Z" fill="#231916"/>
<path d="M208.526 15.8628H222.491V20.0903H213.356V23.9571H222.006V27.9642H213.356V32.3319H223.017V36.5794H208.526V15.8628Z" fill="#231916"/>
<path d="M226.351 15.8628H234.253C235.239 15.8571 236.222 15.9647 237.183 16.1833C238.094 16.3692 238.963 16.7153 239.75 17.2051C240.507 17.7153 241.125 18.4037 241.549 19.2087C242.023 20.1241 242.253 21.1452 242.216 22.1739C242.256 23.4431 241.857 24.6877 241.084 25.7001C240.248 26.672 239.135 27.3705 237.891 27.7037L243.327 36.5192H237.466L232.96 28.3248H231.282V36.4992H226.351V15.8628ZM233.606 24.6984C234.03 24.7281 234.456 24.7281 234.879 24.6984C235.288 24.6317 235.683 24.5033 236.052 24.3177C236.401 24.1494 236.701 23.8939 236.921 23.5764C237.162 23.1854 237.282 22.7323 237.264 22.2741C237.278 21.8906 237.181 21.5111 236.984 21.1808C236.787 20.8505 236.499 20.5832 236.153 20.4108C235.816 20.241 235.455 20.126 235.082 20.0702C234.677 20.0702 234.293 20.0702 233.909 20.0702H231.242V24.8787L233.606 24.6984Z" fill="#231916"/>
<path d="M244.115 34.0347L247.389 30.7088C247.943 31.3666 248.632 31.8994 249.41 32.2716C250.178 32.6692 251.03 32.882 251.896 32.8927C252.259 32.9241 252.624 32.9241 252.987 32.8927C253.319 32.8278 253.635 32.6984 253.917 32.512C254.179 32.3306 254.393 32.0903 254.543 31.8108C254.713 31.4828 254.797 31.1175 254.786 30.7489C254.798 30.3973 254.691 30.0519 254.483 29.7672C254.266 29.4614 253.983 29.2081 253.654 29.0258C253.224 28.7764 252.77 28.5684 252.3 28.4048L250.461 27.8237C249.773 27.6106 249.098 27.3563 248.44 27.0624C247.817 26.781 247.244 26.4022 246.742 25.9404C246.196 25.427 245.765 24.8043 245.479 24.1135C245.194 23.4226 245.059 22.6795 245.085 21.9333C245.064 20.9078 245.307 19.8939 245.793 18.9881C246.25 18.1881 246.886 17.5027 247.652 16.9846C248.425 16.4384 249.296 16.044 250.219 15.8226C251.177 15.5832 252.161 15.4621 253.149 15.4619C254.369 15.4755 255.578 15.6922 256.726 16.103C257.92 16.5101 259.02 17.1505 259.96 17.9864L256.746 21.3523C256.299 20.7926 255.724 20.3463 255.069 20.05C254.438 19.7468 253.749 19.5828 253.048 19.5692C252.711 19.5501 252.374 19.5501 252.037 19.5692C251.71 19.628 251.395 19.7433 251.108 19.9098C250.841 20.0803 250.608 20.2975 250.421 20.5509C250.226 20.8485 250.127 21.198 250.138 21.5527C250.129 21.8612 250.206 22.1661 250.36 22.4342C250.528 22.6795 250.749 22.8848 251.007 23.0353C251.325 23.231 251.664 23.3922 252.017 23.5161C252.421 23.6764 252.866 23.8167 253.351 23.9769C253.836 24.1372 254.786 24.4578 255.554 24.7383C256.278 25.0142 256.959 25.392 257.575 25.8603C258.201 26.3371 258.73 26.9288 259.131 27.6033C259.579 28.3902 259.796 29.2853 259.757 30.1879C259.78 31.2474 259.552 32.2973 259.09 33.2533C258.68 34.0936 258.078 34.8275 257.332 35.3971C256.566 35.9721 255.694 36.394 254.766 36.6393C253.8 36.9151 252.799 37.0501 251.795 37.04C250.326 37.0379 248.869 36.7802 247.49 36.2786C246.211 35.7896 245.057 35.0228 244.115 34.0347V34.0347Z" fill="#231916"/>
<path d="M42.8691 9.47141L42.7276 10.2328H42.1213L43.6371 3H44.2433L43.4956 6.52623C43.7047 6.25954 43.9708 6.04215 44.2749 5.88971C44.5789 5.73727 44.9132 5.65358 45.2538 5.64467C45.5471 5.63829 45.8377 5.70003 46.1026 5.82498C46.3349 5.936 46.531 6.10957 46.6685 6.32586C46.819 6.54815 46.9158 6.80181 46.9514 7.06718C47.0009 7.37243 47.0009 7.68355 46.9514 7.9888C46.8817 8.31994 46.7589 8.63786 46.5877 8.93046C46.4266 9.20244 46.2295 9.45177 46.0016 9.67178C45.7712 9.88417 45.5043 10.0538 45.2134 10.1727C44.9259 10.2938 44.6164 10.3552 44.304 10.353C44.0129 10.3538 43.7269 10.2778 43.4754 10.1326C43.205 9.9848 42.9918 9.75226 42.8691 9.47141V9.47141ZM46.2643 7.9888C46.3059 7.75687 46.3059 7.51949 46.2643 7.28757C46.2499 7.08881 46.1876 6.89641 46.0824 6.72658C45.9913 6.55579 45.8505 6.41615 45.6782 6.32586C45.4789 6.2234 45.2558 6.17501 45.0315 6.18561C44.8383 6.18434 44.6465 6.2183 44.4656 6.2858C44.2494 6.37789 44.0511 6.50672 43.8796 6.66647C43.7046 6.83852 43.5549 7.03411 43.435 7.2475C43.3115 7.46861 43.2164 7.70419 43.152 7.94874C43.1121 8.18753 43.1121 8.43122 43.152 8.67001C43.182 8.86825 43.2506 9.05879 43.3541 9.231C43.4724 9.38862 43.6242 9.51857 43.7987 9.61167C43.9836 9.7137 44.1937 9.76228 44.405 9.75192C44.6417 9.75559 44.8762 9.70772 45.0921 9.61167C45.3029 9.52056 45.4947 9.39148 45.658 9.231C45.8389 9.06419 45.9893 8.86761 46.1026 8.64997C46.1852 8.43747 46.2396 8.21521 46.2643 7.9888V7.9888Z" fill="#231916"/>
<path d="M48.3458 7.98873C48.4247 7.66031 48.547 7.34367 48.7096 7.04707C48.8712 6.76991 49.0758 6.51975 49.3159 6.30577C49.5432 6.10437 49.8027 5.94186 50.0839 5.82491C50.3503 5.70456 50.6399 5.64304 50.9327 5.6446C51.2196 5.63593 51.5043 5.69788 51.7613 5.82491C51.9767 5.93562 52.1582 6.1017 52.2867 6.30577C52.4175 6.51801 52.4938 6.75877 52.509 7.007C52.558 7.29212 52.558 7.58341 52.509 7.86852V8.16906H48.9319C48.8916 8.37416 48.8916 8.58505 48.9319 8.79015C48.9617 8.97591 49.0306 9.15339 49.134 9.31107C49.2514 9.45666 49.3953 9.57901 49.5584 9.67171C49.7284 9.75336 49.9152 9.79452 50.1041 9.79192C50.4109 9.79515 50.7123 9.71176 50.9731 9.55149C51.218 9.40881 51.4367 9.22589 51.6198 9.01054L51.9836 9.41124C51.7012 9.7016 51.3737 9.94512 51.0135 10.1325C50.6949 10.2722 50.3513 10.3471 50.003 10.3529C49.7162 10.3599 49.4319 10.2981 49.1744 10.1726C48.946 10.0559 48.7513 9.88352 48.6086 9.67171C48.4516 9.4509 48.3479 9.19726 48.3054 8.9304C48.2695 8.61633 48.2832 8.29864 48.3458 7.98873V7.98873ZM51.8825 7.64813C51.9653 7.29538 51.915 6.92479 51.741 6.6063C51.641 6.46221 51.504 6.34723 51.3441 6.27326C51.1842 6.19928 51.0073 6.169 50.8316 6.18555C50.63 6.18492 50.4304 6.22587 50.2455 6.30577C50.0527 6.38108 49.8748 6.4896 49.7201 6.62633C49.5584 6.76231 49.4217 6.925 49.3159 7.10719C49.2014 7.2734 49.1128 7.45576 49.0532 7.64813H51.8825Z" fill="#231916"/>
<path d="M52.6909 12.4768L52.893 11.8757C53.0326 11.9082 53.1778 11.9082 53.3174 11.8757C53.4142 11.8798 53.5107 11.8641 53.6011 11.8296C53.6915 11.7952 53.7738 11.7427 53.8429 11.6754C54.0132 11.4921 54.1623 11.2905 54.2875 11.0743L54.8129 10.1527L53.9843 5.68481H54.5704L55.1969 9.45147L57.2178 5.68481H57.8645L54.6108 11.3148C54.4372 11.6187 54.2193 11.8954 53.9641 12.1362C53.7091 12.347 53.3867 12.4607 53.0547 12.4568C52.9341 12.4729 52.8125 12.4796 52.6909 12.4768Z" fill="#231916"/>
<path d="M58.6122 7.98889C58.691 7.66047 58.8133 7.34384 58.976 7.04723C59.1512 6.77406 59.3618 6.52485 59.6024 6.30593C59.8444 6.10401 60.1173 5.94168 60.4108 5.82507C60.6983 5.70393 61.0079 5.64257 61.3202 5.64476C61.6198 5.64026 61.9167 5.70185 62.1893 5.82507C62.4222 5.9341 62.6237 6.09946 62.7753 6.30593C62.9372 6.52409 63.0414 6.77892 63.0785 7.04723C63.1482 7.35731 63.1482 7.67881 63.0785 7.98889C63.0213 8.32355 62.8976 8.64363 62.7147 8.93056C62.5585 9.21133 62.3533 9.46235 62.1084 9.67187C61.8726 9.88704 61.5985 10.0569 61.3 10.1728C61.0048 10.2919 60.6891 10.3531 60.3704 10.3531C60.0772 10.3594 59.7865 10.2977 59.5216 10.1728C59.2813 10.0573 59.0732 9.88535 58.9153 9.67187C58.7648 9.44959 58.668 9.19592 58.6324 8.93056C58.5656 8.62076 58.5588 8.30122 58.6122 7.98889V7.98889ZM62.4116 7.98889C62.4412 7.75607 62.4412 7.52049 62.4116 7.28766C62.3816 7.08942 62.313 6.89888 62.2095 6.72667C62.1123 6.56046 61.9729 6.42231 61.8053 6.32596C61.6123 6.22604 61.3964 6.1777 61.1788 6.18571C60.9923 6.18642 60.8075 6.22036 60.6331 6.28589C60.414 6.38165 60.2152 6.5176 60.0471 6.68659C59.8789 6.85221 59.736 7.0412 59.6227 7.2476C59.4968 7.46544 59.408 7.70236 59.3599 7.94883C59.3207 8.18096 59.3207 8.41793 59.3599 8.65006C59.3714 8.85861 59.4414 9.05984 59.562 9.23109C59.6597 9.39174 59.7994 9.52327 59.9662 9.61177C60.1592 9.71169 60.3751 9.76002 60.5927 9.75202C60.8294 9.75569 61.0639 9.70781 61.2798 9.61177C61.7141 9.40997 62.0692 9.07198 62.2903 8.65006C62.3656 8.43652 62.4131 8.21434 62.4318 7.98889H62.4116Z" fill="#231916"/>
<path d="M65.0591 6.74673C65.0671 6.58654 65.0671 6.42605 65.0591 6.26587C65.0591 6.08555 65.0591 5.90523 65.0591 5.76498H65.6249C65.633 5.89844 65.633 6.03225 65.6249 6.1657C65.6249 6.30595 65.6249 6.42616 65.6249 6.52634C65.8094 6.26287 66.0511 6.04378 66.3323 5.88521C66.6121 5.73523 66.9237 5.65284 67.2417 5.64478C67.4499 5.61721 67.6618 5.6498 67.8518 5.73865C68.0418 5.8275 68.2018 5.96883 68.3128 6.14566C68.5084 6.56581 68.5512 7.04011 68.4341 7.48803L67.9288 10.293H67.3225L67.848 7.8086C67.8665 7.59528 67.8665 7.38079 67.848 7.16747C67.8801 7.00877 67.8801 6.84531 67.848 6.68661C67.7947 6.55003 67.6945 6.4365 67.5651 6.36605C67.4049 6.27755 67.2227 6.23588 67.0396 6.24584C66.8789 6.22136 66.7153 6.22136 66.5546 6.24584C66.3832 6.3271 66.2262 6.43535 66.0898 6.5664C65.9345 6.7307 65.7989 6.91223 65.6856 7.10737C65.5679 7.35689 65.4797 7.6191 65.4229 7.88874L64.9378 10.293H64.3315L65.0591 6.74673Z" fill="#231916"/>
<path d="M70.1115 7.9888C70.1743 7.66499 70.2904 7.35362 70.4551 7.06717C70.6108 6.79162 70.8085 6.54156 71.0412 6.32586C71.2731 6.11544 71.5397 5.94602 71.8294 5.82498C72.1169 5.70384 72.4264 5.64247 72.7388 5.64467C73.0362 5.64405 73.3287 5.71999 73.5876 5.86506C73.8404 6.01714 74.0329 6.25048 74.1332 6.52623V6.52623L74.881 3H75.4873L73.9716 10.2929H73.3653L73.5269 9.53153C73.2991 9.80562 73.0171 10.0306 72.6984 10.1927C72.408 10.3315 72.091 10.4067 71.7687 10.4131C71.4755 10.4195 71.1848 10.3577 70.9199 10.2328C70.6956 10.1103 70.5021 9.93902 70.354 9.73188C70.2132 9.50665 70.1235 9.25366 70.0913 8.99057C70.0305 8.65866 70.0374 8.31803 70.1115 7.9888V7.9888ZM73.9109 7.9888C73.9525 7.75687 73.9525 7.51949 73.9109 7.28756C73.8743 7.08176 73.7989 6.88464 73.6886 6.70654C73.589 6.54022 73.4411 6.40755 73.2642 6.32586C73.1005 6.27737 72.9284 6.26372 72.759 6.2858C72.5158 6.28177 72.2746 6.3296 72.0517 6.42604C71.8388 6.52229 71.6467 6.65834 71.4858 6.82674C71.3176 6.99236 71.1747 7.18135 71.0614 7.38775C70.9443 7.60956 70.856 7.84518 70.7987 8.08898C70.7695 8.32183 70.7695 8.55736 70.7987 8.79022C70.8129 8.99527 70.8752 9.19421 70.9806 9.37124C71.0861 9.53268 71.2324 9.66393 71.405 9.75192C71.5969 9.8546 71.8136 9.90311 72.0314 9.89217C72.2618 9.89844 72.4904 9.85037 72.6984 9.75192C72.9146 9.65983 73.1129 9.531 73.2844 9.37124C73.4656 9.20723 73.6222 9.01832 73.7492 8.81026C73.8443 8.546 73.8988 8.26909 73.9109 7.9888V7.9888Z" fill="#231916"/>
<path d="M79.428 6.74654C79.428 6.62632 79.428 6.46603 79.428 6.26568C79.428 6.06532 79.428 5.90504 79.428 5.76479H79.9938C80.0006 5.89828 80.0006 6.03202 79.9938 6.16551C79.9938 6.31243 79.9938 6.43265 79.9938 6.52614C80.1744 6.2593 80.417 6.03941 80.7012 5.88501C80.9732 5.73372 81.2786 5.65114 81.5904 5.64458C81.8012 5.62032 82.0147 5.65426 82.2072 5.74264C82.3998 5.83103 82.564 5.97043 82.6817 6.14547C82.8374 6.57961 82.8374 7.05369 82.6817 7.48783L82.2775 10.2928H81.6712L82.1967 7.80841C82.2147 7.59507 82.2147 7.38061 82.1967 7.16728C82.2288 7.00857 82.2288 6.84512 82.1967 6.68642C82.1371 6.55376 82.0385 6.44204 81.9137 6.36586C81.7536 6.27736 81.5714 6.23568 81.3883 6.24565C81.2279 6.21756 81.0637 6.21756 80.9033 6.24565C80.7319 6.32691 80.5749 6.43516 80.4385 6.56621C80.2768 6.72515 80.1405 6.90757 80.0343 7.10717C79.9075 7.35305 79.819 7.61647 79.7715 7.88855L79.2865 10.2928H78.7004L79.428 6.74654Z" fill="#231916"/>
<path d="M84.4602 7.98874C84.539 7.66032 84.6614 7.34368 84.824 7.04708C84.9855 6.76992 85.1901 6.51976 85.4303 6.30578C85.6576 6.10438 85.9171 5.94187 86.1982 5.82492C86.4722 5.70587 86.7681 5.64448 87.0672 5.64461C87.3477 5.63588 87.6259 5.69792 87.8756 5.82492C88.0911 5.93563 88.2725 6.10171 88.4011 6.30578C88.5318 6.51802 88.6081 6.75878 88.6234 7.00701C88.6724 7.29213 88.6724 7.58341 88.6234 7.86853V8.16907H85.1877C85.1479 8.37422 85.1479 8.58501 85.1877 8.79016C85.2158 8.97977 85.2923 9.15911 85.4101 9.31108C85.52 9.45608 85.6573 9.57855 85.8142 9.67172C85.9906 9.75574 86.1845 9.79694 86.3801 9.79193C86.6807 9.79585 86.9758 9.71225 87.2289 9.5515C87.4739 9.40882 87.6925 9.2259 87.8756 9.01055L88.2394 9.41125C87.9571 9.70161 87.6295 9.94513 87.2693 10.1325C86.9507 10.2722 86.6071 10.3471 86.2588 10.3529C85.9723 10.3576 85.6885 10.2959 85.4303 10.1726C85.2019 10.0559 85.0071 9.88353 84.8644 9.67172C84.7139 9.44943 84.6171 9.19577 84.5815 8.9304C84.4809 8.62705 84.4397 8.30742 84.4602 7.98874V7.98874ZM87.9969 7.64814C88.0899 7.29594 88.0391 6.92157 87.8554 6.60631C87.7402 6.47385 87.5915 6.37429 87.4245 6.31793C87.2575 6.26157 87.0783 6.25046 86.9056 6.28574C86.7039 6.28512 86.5043 6.32605 86.3195 6.40595C86.1288 6.48551 85.9516 6.59363 85.794 6.72652C85.6323 6.8625 85.4956 7.02518 85.3898 7.20736C85.2754 7.37358 85.1868 7.55595 85.1271 7.74833L87.9969 7.64814Z" fill="#231916"/>
<path d="M90.1592 9.0908L90.7452 6.30589H89.8762L89.9975 5.76493H90.9473L91.21 4.48267H91.8163L91.5334 5.76493H92.7056V6.30589H91.5334L90.9675 8.91048C90.9594 9.05061 90.9594 9.19109 90.9675 9.33122C90.9532 9.41073 90.9532 9.49214 90.9675 9.57165C91.0147 9.63343 91.0774 9.6818 91.1494 9.7119H91.3717C91.4651 9.73025 91.5612 9.73025 91.6547 9.7119H91.9376V10.2729H91.594H91.21H90.8665C90.7476 10.2373 90.6421 10.1676 90.5633 10.0725C90.4577 9.97768 90.3867 9.8509 90.3612 9.7119C90.2532 9.52013 90.1845 9.30904 90.1592 9.0908V9.0908Z" fill="#231916"/>
<path d="M95.2925 9.77196L98.5058 6.30586H96.1615L96.2827 5.76489H99.4354V6.22571L96.2221 9.6718H98.8089L98.6877 10.2328H95.3127L95.2925 9.77196Z" fill="#231916"/>
<path d="M100.264 7.98874C100.343 7.66032 100.465 7.34368 100.628 7.04708C100.789 6.76992 100.994 6.51976 101.234 6.30578C101.461 6.10438 101.721 5.94187 102.002 5.82492C102.276 5.70587 102.572 5.64448 102.871 5.64461C103.151 5.63588 103.43 5.69792 103.679 5.82492C103.895 5.93563 104.076 6.10171 104.205 6.30578C104.336 6.51802 104.412 6.75878 104.427 7.00701C104.476 7.29213 104.476 7.58341 104.427 7.86853V8.16907H100.991C100.952 8.37422 100.952 8.58501 100.991 8.79016C101.019 8.97977 101.096 9.15911 101.214 9.31108C101.324 9.45608 101.461 9.57855 101.618 9.67172C101.788 9.75337 101.975 9.79453 102.164 9.79193C102.47 9.79516 102.772 9.71176 103.033 9.5515C103.278 9.40882 103.496 9.2259 103.679 9.01055L104.043 9.41125C103.761 9.70161 103.433 9.94513 103.073 10.1325C102.754 10.2722 102.411 10.3471 102.063 10.3529C101.776 10.3576 101.492 10.2959 101.234 10.1726C101.006 10.0559 100.811 9.88353 100.668 9.67172C100.518 9.44943 100.421 9.19577 100.385 8.9304C100.285 8.62705 100.243 8.30742 100.264 7.98874V7.98874ZM103.801 7.64814C103.883 7.29539 103.833 6.9248 103.659 6.60631C103.559 6.46222 103.422 6.34724 103.262 6.27326C103.102 6.19929 102.925 6.16901 102.75 6.18556C102.548 6.18493 102.348 6.22588 102.164 6.30578C101.973 6.38534 101.796 6.49345 101.638 6.62634C101.476 6.76232 101.34 6.92501 101.234 7.1072C101.119 7.27341 101.031 7.45577 100.971 7.64814H103.801Z" fill="#231916"/>
<path d="M106.347 6.74673C106.355 6.58654 106.355 6.42605 106.347 6.26587C106.347 6.08555 106.347 5.90523 106.347 5.76499H107.115C107.123 5.89844 107.123 6.03225 107.115 6.1657C107.115 6.30595 107.115 6.42616 107.115 6.52634C107.29 6.26921 107.517 6.05091 107.782 5.88521C108.036 5.72757 108.331 5.64424 108.631 5.64478H108.833H109.015L108.813 6.26587C108.76 6.25136 108.704 6.25136 108.651 6.26587H108.388C108.235 6.23006 108.076 6.23006 107.923 6.26587C107.749 6.33209 107.59 6.43455 107.459 6.5664C107.308 6.71766 107.184 6.89397 107.095 7.08733C106.968 7.32621 106.88 7.583 106.832 7.84866L106.347 10.1527H105.741L106.347 6.74673Z" fill="#231916"/>
<path d="M109.257 7.98889C109.336 7.66047 109.458 7.34384 109.621 7.04723C109.796 6.77406 110.007 6.52485 110.247 6.30593C110.482 6.10414 110.748 5.94171 111.036 5.82507C111.331 5.70596 111.647 5.64473 111.965 5.64476C112.265 5.64026 112.562 5.70185 112.834 5.82507C113.067 5.9341 113.269 6.09946 113.42 6.30593C113.582 6.52409 113.686 6.77892 113.723 7.04723C113.793 7.35731 113.793 7.67881 113.723 7.98889C113.666 8.32355 113.543 8.64363 113.36 8.93056C113.204 9.21133 112.998 9.46235 112.753 9.67187C112.518 9.88704 112.244 10.0569 111.945 10.1728C111.65 10.2919 111.334 10.3531 111.015 10.3531C110.722 10.3594 110.432 10.2977 110.167 10.1728C109.926 10.0573 109.718 9.88535 109.56 9.67187C109.41 9.44959 109.313 9.19592 109.277 8.93056C109.211 8.62076 109.204 8.30122 109.257 7.98889ZM113.057 7.98889C113.086 7.75607 113.086 7.52049 113.057 7.28766C113.027 7.08942 112.958 6.89888 112.854 6.72667C112.757 6.56046 112.618 6.42231 112.45 6.32596C112.257 6.22604 112.041 6.1777 111.824 6.18571C111.587 6.18 111.352 6.22797 111.137 6.32596C110.918 6.42172 110.719 6.55768 110.551 6.72667C110.382 6.89229 110.24 7.08126 110.126 7.28766C110 7.5055 109.912 7.74242 109.863 7.98889C109.824 8.22103 109.824 8.458 109.863 8.69013C109.875 8.89868 109.945 9.0999 110.066 9.27116C110.163 9.43181 110.303 9.56333 110.47 9.65183C110.662 9.75451 110.878 9.80302 111.096 9.79208C111.333 9.79575 111.567 9.74788 111.783 9.65183C112.218 9.45003 112.573 9.11205 112.794 8.69013C112.914 8.46979 113.003 8.23372 113.057 7.98889V7.98889Z" fill="#231916"/>
</g>
<defs>
<clipPath id="clip0_2_126">
<rect width="218" height="34" fill="white" transform="translate(42 3)"/>
</clipPath>
</defs>
</svg>
