<svg width="294" height="51" viewBox="0 0 294 51" fill="none" xmlns="http://www.w3.org/2000/svg">
<g clip-path="url(#clip0_2_159)">
<path d="M82.8239 21.1445L81.0575 20.417C80.5767 20.2256 80.1071 20.0073 79.6509 19.763C79.3041 19.5776 78.9916 19.3343 78.7268 19.0437C78.4843 18.7195 78.3654 18.3196 78.3915 17.9156C78.4034 17.6541 78.4857 17.4007 78.6296 17.182C78.7735 16.9634 78.9738 16.7875 79.2093 16.6731C79.4436 16.5373 79.6973 16.438 79.9617 16.3788C80.3305 16.3058 80.7061 16.2729 81.082 16.2807C81.5955 16.2887 82.1052 16.3713 82.5949 16.526C82.839 16.5896 83.077 16.6743 83.3064 16.7794L84.0505 17.1472C84.3403 17.2902 84.6597 17.363 84.9828 17.3598C85.3263 17.3598 85.6288 17.0737 85.8824 16.5015C86.1227 16.0094 86.2538 15.4712 86.2667 14.9238C86.2667 14.5886 86.0541 14.2944 85.6125 14.0328C84.1563 13.2453 82.5158 12.8614 80.8612 12.9211C79.2758 12.8658 77.7143 13.3183 76.4043 14.2126C75.7601 14.6314 75.234 15.2081 74.8761 15.8878C74.5182 16.5675 74.3404 17.3276 74.3599 18.0955C74.322 19.2786 74.7044 20.437 75.4393 21.3652C75.7973 21.789 76.2129 22.1605 76.6742 22.4688C77.6689 23.1624 78.7563 23.7127 79.9044 24.1036C80.4611 24.2855 81.0071 24.4984 81.54 24.7412C82.7257 25.2726 83.3227 25.9265 83.3227 26.6949C83.3227 28.1009 82.276 28.8039 80.1825 28.8039C79.4847 28.8017 78.7928 28.6772 78.138 28.4361C77.5688 28.2502 77.0332 27.9742 76.5515 27.6186C76.2494 27.344 75.8632 27.1798 75.4557 27.1527C75.2796 27.1581 75.1087 27.2142 74.9637 27.3142C74.8186 27.4143 74.7055 27.554 74.6379 27.7167C74.4335 28.0927 74.2781 28.4197 74.1473 28.6976C74.0191 28.9943 73.955 29.3146 73.9592 29.6377C73.9592 29.9892 74.2536 30.3816 74.826 30.8148C76.0036 31.714 77.7618 32.1636 80.1007 32.1636C82.0383 32.2898 83.9503 31.6664 85.4408 30.4224C85.999 29.9014 86.4395 29.2673 86.7329 28.5625C87.0262 27.8576 87.1656 27.0983 87.1417 26.3352C87.1425 25.687 87.0126 25.0453 86.7597 24.4483C86.5068 23.8514 86.1361 23.3116 85.6697 22.8611C84.8084 22.1424 83.8326 21.5732 82.783 21.1772" fill="#2D489D"/>
<path d="M103.955 26.9237C103.513 27.5301 102.926 28.0157 102.247 28.3357C101.568 28.6557 100.82 28.7998 100.071 28.7547C99.314 28.7875 98.5608 28.6349 97.8766 28.31C97.1924 27.9852 96.5981 27.498 96.1454 26.891C95.716 26.3089 95.3921 25.6559 95.1886 24.9618C94.9808 24.2223 94.8762 23.4575 94.8779 22.6894C94.8763 21.9017 94.9697 21.1168 95.1559 20.3515C95.323 19.6195 95.6223 18.9242 96.0391 18.2997C96.4475 17.698 96.9908 17.1998 97.6256 16.8447C98.3604 16.4577 99.1834 16.2689 100.014 16.297C100.852 16.2704 101.682 16.4679 102.418 16.8692C104.222 17.9155 105.127 19.8229 105.133 22.5913C105.218 24.1322 104.805 25.6598 103.955 26.9482V26.9237ZM100.005 12.9291C98.7931 12.8946 97.5867 13.1097 96.4612 13.5611C95.3357 14.0125 94.3152 14.6906 93.4631 15.5531C92.6156 16.4235 91.9511 17.4546 91.5086 18.5858C91.023 19.8249 90.7814 21.1461 90.7972 22.4768C90.6865 25.0368 91.5918 27.537 93.3159 29.4332C95.0811 31.1658 97.4527 32.1419 99.9266 32.1541C102.4 32.1663 104.782 31.2136 106.564 29.4986C107.453 28.5712 108.146 27.4746 108.603 26.2739C109.06 25.0733 109.27 23.7931 109.222 22.5095C109.222 19.5586 108.404 17.2452 106.866 15.5531C105.329 13.861 102.957 12.9291 100.014 12.9291" fill="#2D489D"/>
<path d="M126.46 26.4495C126.177 27.1427 125.69 27.7339 125.064 28.1454C124.437 28.5568 123.701 28.7692 122.952 28.7547C122.306 28.7407 121.67 28.5874 121.089 28.3052C120.507 28.023 119.994 27.6187 119.583 27.1198C118.541 26.018 117.979 24.548 118.021 23.0326V22.1334C118.002 20.6367 118.528 19.1841 119.501 18.0462C119.943 17.487 120.506 17.0348 121.148 16.7234C121.789 16.412 122.493 16.2494 123.206 16.2479C123.824 16.2389 124.434 16.3909 124.976 16.689C125.518 16.9871 125.973 17.421 126.297 17.9481C127.041 19.0793 127.418 20.4124 127.376 21.7656C127.434 23.3553 127.121 24.9367 126.46 26.3841V26.4495ZM127.393 13.5994C126.396 13.122 125.301 12.8841 124.195 12.9045C123.901 12.9045 123.623 12.9045 123.377 12.9045C121.266 13.0742 119.282 13.9831 117.776 15.4713V15.4713C117.667 14.982 117.508 14.5054 117.301 14.049C117.2 13.7972 117.022 13.5833 116.794 13.4368C116.565 13.2904 116.297 13.2186 116.026 13.2315H115.028C114.877 13.2201 114.726 13.2421 114.584 13.2958C114.443 13.3495 114.315 13.4336 114.21 13.5421C114.022 13.7219 113.913 13.9689 113.908 14.2288C113.903 14.4235 113.919 14.6181 113.957 14.8092C114.35 17.018 114.515 19.2615 114.447 21.504V39.5776C114.447 40.4277 114.791 40.8528 115.478 40.8528H117.506C118.144 40.8528 118.463 40.4522 118.463 39.643V32.8991C118.463 32.5067 118.463 32.1225 118.463 31.7547V30.3323C119.943 31.4763 121.769 32.0817 123.639 32.0489H123.819C124.956 32.0604 126.077 31.7838 127.078 31.2449C128.079 30.706 128.927 29.9224 129.543 28.9672C130.972 26.8737 131.696 24.38 131.612 21.8473C131.733 19.5567 131.082 17.2919 129.764 15.4141C129.124 14.6345 128.313 14.0134 127.393 13.5994Z" fill="#2D489D"/>
<path d="M148.557 26.9237C148.115 27.5301 147.528 28.0157 146.849 28.3357C146.17 28.6557 145.421 28.7998 144.672 28.7547C143.917 28.7883 143.164 28.6359 142.481 28.311C141.798 27.986 141.206 27.4984 140.755 26.891C140.323 26.3108 139.998 25.6572 139.798 24.9618C139.584 24.2235 139.476 23.4582 139.479 22.6894C139.478 21.9017 139.571 21.1168 139.757 20.3515C139.927 19.6191 140.23 18.9238 140.649 18.2997C141.052 17.6963 141.593 17.1975 142.227 16.8447C142.962 16.4584 143.785 16.2696 144.615 16.297C145.453 16.2704 146.283 16.4679 147.019 16.8692C148.824 17.9155 149.729 19.8229 149.734 22.5913C149.82 24.1322 149.407 25.6598 148.557 26.9482V26.9237ZM144.607 12.9291C143.395 12.8946 142.188 13.1097 141.063 13.5611C139.937 14.0125 138.917 14.6906 138.065 15.5531C137.217 16.4235 136.553 17.4546 136.11 18.5858C135.627 19.8255 135.389 21.1467 135.407 22.4768C135.294 25.0357 136.196 27.5357 137.917 29.4332C139.683 31.1658 142.054 32.1419 144.528 32.1541C147.002 32.1663 149.383 31.2136 151.165 29.4986C152.056 28.5723 152.751 27.4759 153.207 26.2749C153.664 25.074 153.873 23.7933 153.823 22.5095C153.823 19.5586 153.046 17.2452 151.476 15.5531C149.906 13.861 147.567 12.9291 144.615 12.9291" fill="#2D489D"/>
<path d="M170.866 26.9238C170.424 27.5302 169.836 28.0158 169.158 28.3358C168.479 28.6558 167.73 28.7999 166.981 28.7549C166.225 28.7884 165.473 28.6361 164.79 28.3111C164.107 27.9861 163.514 27.4985 163.064 26.8911C162.631 26.3109 162.307 25.6573 162.107 24.9619C161.893 24.2236 161.785 23.4583 161.788 22.6895C161.787 21.9018 161.88 21.1169 162.066 20.3516C162.236 19.6192 162.538 18.9239 162.958 18.2998C163.363 17.6982 163.903 17.1999 164.536 16.8448C165.282 16.4764 166.104 16.2848 166.936 16.2848C167.769 16.2848 168.59 16.4764 169.336 16.8448C171.135 17.8911 172.043 19.7876 172.043 22.5668C172.128 24.1078 171.716 25.6353 170.866 26.9238V26.9238ZM166.916 12.9047C165.703 12.8701 164.497 13.0853 163.372 13.5367C162.246 13.9881 161.226 14.6662 160.374 15.5287C159.526 16.3991 158.861 17.4302 158.419 18.5614C157.936 19.801 157.697 21.1222 157.716 22.4524C157.603 25.0113 158.505 27.5113 160.226 29.4088C161.992 31.1413 164.363 32.1175 166.837 32.1297C169.311 32.1419 171.692 31.1892 173.474 29.4742C174.365 28.5479 175.059 27.4515 175.516 26.2505C175.973 25.0496 176.182 23.7689 176.132 22.4851C176.132 19.5341 175.314 17.2208 173.785 15.5287C172.256 13.8366 169.876 12.9047 166.924 12.9047" fill="#2D489D"/>
<path d="M194.287 13.4851C193.506 13.093 192.642 12.894 191.768 12.9047H191.04H190.803C190.378 12.9369 189.957 13.0053 189.544 13.1091C187.754 13.4878 186.137 14.4408 184.94 15.823V15.823C184.789 15.1897 184.581 14.5713 184.318 13.9756C184.206 13.7479 184.027 13.5601 183.804 13.4373C183.582 13.3146 183.328 13.2628 183.075 13.2889H182.184C181.431 13.2889 181.055 13.6813 181.055 14.466C181.055 14.6377 181.129 15.1527 181.268 16.0191C181.448 17.538 181.519 19.0678 181.48 20.5968V30.6268C181.474 30.9116 181.58 31.1875 181.775 31.3952C181.891 31.5022 182.028 31.5843 182.177 31.6364C182.326 31.6884 182.484 31.7092 182.642 31.6976H184.326C184.476 31.7054 184.626 31.6825 184.766 31.6305C184.907 31.5785 185.035 31.4984 185.144 31.3952C185.328 31.1816 185.426 30.9082 185.422 30.6268V21.5696C185.419 20.8702 185.557 20.1774 185.829 19.5327C186.1 18.888 186.498 18.3046 187 17.8175C187.414 17.357 187.918 16.986 188.48 16.7274C189.043 16.4687 189.652 16.3278 190.272 16.3134C192.316 16.3134 193.338 17.7085 193.338 20.4987V30.6513C193.332 30.9361 193.438 31.212 193.633 31.4197C193.756 31.5302 193.902 31.614 194.059 31.6661C194.217 31.7181 194.383 31.7372 194.549 31.7221H196.184C196.342 31.7338 196.5 31.7129 196.649 31.6609C196.798 31.6089 196.935 31.5268 197.051 31.4197C197.246 31.212 197.352 30.9361 197.345 30.6513V20.5069C197.345 18.12 196.931 16.308 196.102 15.0709C195.643 14.3891 195.011 13.8417 194.27 13.4851" fill="#2D489D"/>
<path d="M214.69 36.1363C213.872 37.15 212.458 37.6486 210.405 37.6486C209.283 37.6915 208.17 37.4407 207.175 36.9211C206.746 36.6795 206.377 36.3442 206.095 35.9402C205.816 35.5194 205.673 35.0227 205.686 34.5178C205.692 33.9533 205.907 33.4111 206.292 32.9974C207.003 32.4906 208.336 32.229 210.291 32.229C211.348 32.1924 212.403 32.3589 213.398 32.7195C213.855 32.8983 214.266 33.1777 214.6 33.5369C214.921 33.8963 215.093 34.3635 215.083 34.8448C215.098 35.3018 214.96 35.7508 214.69 36.12V36.1363ZM208.352 23.1309C207.876 22.9717 207.434 22.7219 207.052 22.3952C206.683 22.0784 206.387 21.6851 206.185 21.2426C205.973 20.7699 205.867 20.2565 205.875 19.7385C205.862 19.2261 205.974 18.7183 206.202 18.259C206.542 17.6138 207.067 17.0844 207.709 16.738C208.351 16.3916 209.082 16.2438 209.808 16.3135C210.799 16.2749 211.776 16.562 212.589 17.1309C212.999 17.4251 213.331 17.8165 213.554 18.2701C213.776 18.7237 213.883 19.2254 213.864 19.7304C213.878 20.2273 213.782 20.7211 213.584 21.1772C213.386 21.6333 213.091 22.0407 212.719 22.3707C212.357 22.6968 211.935 22.9494 211.476 23.1146C210.98 23.2899 210.457 23.3757 209.931 23.368C209.394 23.3729 208.861 23.2872 208.352 23.1146V23.1309ZM216.53 30.5369C215.776 30.0643 214.946 29.7242 214.077 29.5314C213.068 29.307 212.036 29.2 211.002 29.2126C209.868 29.2081 208.749 29.4655 207.731 29.9647C208.024 29.63 208.35 29.3259 208.704 29.0573C209.178 28.6813 210.601 27.7331 212.989 26.229C213.414 25.9511 213.807 25.6486 214.257 25.3298C214.675 25.0017 215.071 24.6468 215.443 24.2671C215.818 23.886 216.152 23.4668 216.44 23.0165C216.735 22.5614 216.969 22.0694 217.135 21.5532C217.293 21.1118 217.382 20.6485 217.397 20.1799C217.397 19.7957 217.397 19.477 217.397 19.2399C218.213 17.6265 218.628 15.8405 218.607 14.0328C218.607 11.5151 218.158 10.9838 217.25 10.9838H215.843C215.648 10.9808 215.456 11.0317 215.287 11.1309C215.171 11.2024 215.072 11.3004 215.001 11.417C214.918 11.5697 214.879 11.7421 214.886 11.9156C214.886 12.12 215.009 12.3979 215.263 13.4688C215.512 14.2401 215.642 15.0451 215.647 15.8557C215.42 15.3987 215.112 14.9862 214.739 14.6377C213.342 13.4106 211.518 12.7823 209.661 12.8884C207.775 12.8425 205.935 13.4748 204.476 14.6704C203.713 15.2807 203.102 16.0599 202.692 16.9465C202.282 17.8332 202.084 18.803 202.113 19.7794C202.101 20.6518 202.283 21.5159 202.646 22.3091C203.01 23.1023 203.546 23.8047 204.214 24.3652C205.492 25.4593 207.084 26.1179 208.761 26.2453C207.655 26.8731 206.614 27.6097 205.654 28.4442C203.25 30.5696 202.047 32.7685 202.047 35.041C202.032 35.9355 202.255 36.818 202.693 37.598C203.131 38.378 203.769 39.0274 204.542 39.4797C206.286 40.5367 208.301 41.0596 210.34 40.9838C212.396 41.0414 214.425 40.508 216.187 39.447C217.017 38.9941 217.71 38.3264 218.193 37.5139C218.677 36.7013 218.933 35.7738 218.934 34.8285C218.951 33.9584 218.732 33.1002 218.3 32.3446C217.868 31.5891 217.239 30.9645 216.481 30.5369" fill="#2D489D"/>
</g>
<defs>
<clipPath id="clip0_2_159">
<rect width="145" height="30" fill="white" transform="translate(74 11)"/>
</clipPath>
</defs>
</svg>
