<?xml version="1.0" encoding="UTF-8" standalone="no"?>
<svg
   xmlns:dc="http://purl.org/dc/elements/1.1/"
   xmlns:cc="http://creativecommons.org/ns#"
   xmlns:rdf="http://www.w3.org/1999/02/22-rdf-syntax-ns#"
   xmlns:svg="http://www.w3.org/2000/svg"
   xmlns="http://www.w3.org/2000/svg"
   viewBox="0 0 586.51202 152.51466"
   height="152.51466"
   width="586.51202"
   xml:space="preserve"
   id="svg2"
   version="1.1"><metadata
     id="metadata8"><rdf:RDF><cc:Work
         rdf:about=""><dc:format>image/svg+xml</dc:format><dc:type
           rdf:resource="http://purl.org/dc/dcmitype/StillImage" /></cc:Work></rdf:RDF></metadata><defs
     id="defs6"><clipPath
       id="clipPath22"
       clipPathUnits="userSpaceOnUse"><path
         id="path20"
         d="M 0,114.386 H 439.884 V 0 H 0 Z" /></clipPath></defs><g
     transform="matrix(1.3333333,0,0,-1.3333333,0,152.51467)"
     id="g10"><g
       transform="translate(200.793,48.168)"
       id="g12"><path
         id="path14"
         style="fill:#5c5c5b;fill-opacity:1;fill-rule:nonzero;stroke:none"
         d="m 0,0 v 19.599 h -26.422 v 4.533 H 5.084 V 0 Z M -14.836,-7.189 V 5.494 h 4.945 V -7.189 H 8.105 v -4.443 h -37.548 v 4.443 z" /></g><g
       id="g16"><g
         clip-path="url(#clipPath22)"
         id="g18"><g
           transform="translate(236.25,67.5371)"
           id="g24"><path
             id="path26"
             style="fill:#5c5c5b;fill-opacity:1;fill-rule:nonzero;stroke:none"
             d="M 0,0 C 0,1.221 -0.457,2.29 -1.373,3.206 -2.289,4.122 -3.389,4.58 -4.67,4.58 -5.953,4.58 -7.045,4.122 -7.943,3.206 -8.846,2.29 -9.295,1.221 -9.295,0 c 0,-1.252 0.449,-2.335 1.352,-3.251 0.898,-0.916 1.99,-1.374 3.273,-1.374 1.281,0 2.381,0.458 3.297,1.374 C -0.457,-2.335 0,-1.252 0,0 m 0.092,-26.88 c 0,1.282 -0.465,2.375 -1.395,3.275 -0.933,0.9 -2.054,1.35 -3.367,1.35 -1.312,0 -2.428,-0.45 -3.344,-1.35 -0.916,-0.9 -1.373,-1.993 -1.373,-3.275 0,-1.282 0.457,-2.381 1.373,-3.297 0.916,-0.916 2.032,-1.373 3.344,-1.373 1.313,0 2.434,0.457 3.367,1.373 0.93,0.916 1.395,2.015 1.395,3.297 M 4.945,0 C 4.945,-1.222 4.687,-2.366 4.166,-3.434 3.648,-4.503 2.947,-5.449 2.061,-6.273 1.236,-7.067 0.244,-7.709 -0.916,-8.196 c -1.158,-0.49 -2.395,-0.733 -3.709,-0.733 -1.312,0 -2.557,0.243 -3.73,0.733 -1.176,0.487 -2.178,1.129 -3.002,1.923 -0.883,0.824 -1.586,1.77 -2.106,2.839 -0.517,1.068 -0.779,2.212 -0.779,3.434 0,1.191 0.262,2.329 0.779,3.412 0.52,1.083 1.223,2.037 2.106,2.861 0.824,0.793 1.826,1.435 3.002,1.924 1.173,0.488 2.418,0.733 3.73,0.733 1.314,0 2.551,-0.245 3.709,-0.733 C 0.244,7.708 1.236,7.066 2.061,6.273 2.947,5.449 3.648,4.495 4.166,3.412 4.687,2.329 4.945,1.191 4.945,0 m 0.092,-26.971 c 0,-1.222 -0.26,-2.375 -0.779,-3.458 -0.518,-1.083 -1.221,-2.021 -2.106,-2.815 -0.853,-0.824 -1.871,-1.48 -3.043,-1.97 -1.177,-0.487 -2.42,-0.732 -3.734,-0.732 -1.312,0 -2.564,0.245 -3.756,0.732 -1.189,0.49 -2.226,1.146 -3.113,1.97 -0.854,0.794 -1.541,1.732 -2.061,2.815 -0.517,1.083 -0.777,2.236 -0.777,3.458 0,1.22 0.26,2.374 0.777,3.457 0.52,1.083 1.207,2.038 2.061,2.863 0.887,0.824 1.924,1.471 3.113,1.945 1.192,0.475 2.444,0.71 3.756,0.71 1.314,0 2.557,-0.235 3.734,-0.71 1.172,-0.474 2.19,-1.121 3.043,-1.945 0.885,-0.825 1.588,-1.78 2.106,-2.863 0.519,-1.083 0.779,-2.237 0.779,-3.457 m -20.012,14.79 v 3.801 h 4.672 v -3.801 H 0.961 v 3.801 h 4.672 v -3.801 h 8.471 v -4.303 h -37.549 v 4.303 z" /></g><g
           transform="translate(292.0937,41.0244)"
           id="g28"><path
             id="path30"
             style="fill:#5c5c5b;fill-opacity:1;fill-rule:nonzero;stroke:none"
             d="M 0,0 V -4.488 H -37.551 V 0 h 16.211 v 9.845 h -13.187 v 21.751 h 5.082 V 14.332 H -2.428 V 9.845 H -16.256 V 0 Z" /></g><g
           transform="translate(320.7461,41.3447)"
           id="g32"><path
             id="path34"
             style="fill:#5c5c5b;fill-opacity:1;fill-rule:nonzero;stroke:none"
             d="m 0,0 c 0,1.403 -0.504,2.603 -1.51,3.595 -1.008,0.991 -2.213,1.488 -3.619,1.488 -1.402,0 -2.609,-0.497 -3.617,-1.488 -1.008,-0.992 -1.51,-2.192 -1.51,-3.595 0,-1.405 0.502,-2.597 1.51,-3.572 1.008,-0.976 2.215,-1.465 3.617,-1.465 1.406,0 2.611,0.489 3.619,1.465 C -0.504,-2.597 0,-1.405 0,0 M 4.9,-0.092 C 4.9,-1.374 4.633,-2.588 4.102,-3.732 3.564,-4.877 2.855,-5.861 1.969,-6.686 1.023,-7.54 -0.053,-8.22 -1.258,-8.724 c -1.207,-0.504 -2.496,-0.755 -3.871,-0.755 -1.373,0 -2.662,0.251 -3.867,0.755 -1.207,0.504 -2.281,1.184 -3.231,2.038 -0.882,0.825 -1.595,1.809 -2.127,2.954 -0.535,1.144 -0.802,2.358 -0.802,3.64 0,1.282 0.267,2.496 0.802,3.641 0.532,1.144 1.245,2.129 2.127,2.953 0.95,0.854 2.024,1.534 3.231,2.038 1.205,0.504 2.494,0.756 3.867,0.756 1.375,0 2.664,-0.252 3.871,-0.756 C -0.053,8.036 1.023,7.356 1.969,6.502 2.855,5.678 3.564,4.693 4.102,3.549 4.633,2.404 4.9,1.19 4.9,-0.092 M -7.693,14.836 v 3.801 H -20.881 V 32.558 H 10.67 V 28.254 H -15.844 V 22.896 H 10.762 V 18.637 H -2.609 v -3.801 h 16.255 v -4.304 h -37.548 v 4.304 z" /></g><path
           id="path36"
           style="fill:#5c5c5b;fill-opacity:1;fill-rule:nonzero;stroke:none"
           d="m 369.104,64.131 h -21.477 v -5.632 h 21.477 z m -21.477,4.396 h 21.477 v 5.175 h 5.037 V 54.057 h -31.506 v 19.645 h 4.992 z m -8.014,-19.964 h 37.549 V 44.074 H 360.906 V 33.542 h -5.082 v 10.532 h -16.211 z" /><g
           transform="translate(120.6621,59.4512)"
           id="g38"><path
             id="path40"
             style="fill:#194067;fill-opacity:1;fill-rule:nonzero;stroke:none"
             d="m 0,0 c -8.613,5.855 -19.646,3.467 -25.436,-5.339 -4.839,-7.355 -12.14,-8.268 -14.968,-8.268 -9.213,0 -15.522,6.482 -17.389,13.189 h -0.006 c -0.017,0.067 -0.029,0.121 -0.049,0.186 -0.017,0.076 -0.043,0.15 -0.06,0.229 -0.735,2.798 -0.914,4.136 -0.914,7.11 0,16.041 16.455,33.899 40.16,33.899 24.271,0 38.158,-18.477 41.736,-28.747 -0.06,0.18 -0.117,0.36 -0.179,0.546 -6.889,20.084 -25.936,34.527 -48.358,34.527 -28.223,0 -51.111,-22.881 -51.111,-51.109 0,-25.231 18.199,-46.83 43.441,-46.83 20.135,0 33.664,11.291 39.871,26.845 C 10.143,-15.254 7.732,-5.254 0,0" /></g><g
           transform="translate(144.0547,70.7129)"
           id="g42"><path
             id="path44"
             style="fill:#e41e37;fill-opacity:1;fill-rule:nonzero;stroke:none"
             d="m 0,0 c -2.982,10.018 -16.977,29.744 -42.055,29.744 -23.705,0 -40.16,-17.857 -40.16,-33.898 0,-2.975 0.18,-4.313 0.914,-7.111 -0.306,1.224 -0.47,2.452 -0.47,3.647 0,16.704 16.728,28.28 33.919,28.28 23.276,0 42.143,-18.869 42.143,-42.14 0,-18.245 -10.498,-34.034 -25.754,-41.622 l 0.006,-0.011 C -11.795,-55.99 2.248,-37.157 2.248,-15.039 2.248,-9.805 1.547,-5.189 0,0" /></g></g></g></g></svg>