<?xml version="1.0" encoding="UTF-8" standalone="no"?>
<svg
   xmlns:dc="http://purl.org/dc/elements/1.1/"
   xmlns:cc="http://creativecommons.org/ns#"
   xmlns:rdf="http://www.w3.org/1999/02/22-rdf-syntax-ns#"
   xmlns:svg="http://www.w3.org/2000/svg"
   xmlns="http://www.w3.org/2000/svg"
   viewBox="0 0 699.17865 152.51466"
   height="152.51466"
   width="699.17865"
   xml:space="preserve"
   id="svg2"
   version="1.1"><metadata
     id="metadata8"><rdf:RDF><cc:Work
         rdf:about=""><dc:format>image/svg+xml</dc:format><dc:type
           rdf:resource="http://purl.org/dc/dcmitype/StillImage" /></cc:Work></rdf:RDF></metadata><defs
     id="defs6"><clipPath
       id="clipPath18"
       clipPathUnits="userSpaceOnUse"><path
         id="path16"
         d="M 0,114.386 H 524.384 V 0 H 0 Z" /></clipPath></defs><g
     transform="matrix(1.3333333,0,0,-1.3333333,0,152.51467)"
     id="g10"><g
       id="g12"><g
         clip-path="url(#clipPath18)"
         id="g14"><g
           transform="translate(120.7529,59.3955)"
           id="g20"><path
             id="path22"
             style="fill:#194067;fill-opacity:1;fill-rule:nonzero;stroke:none"
             d="m 0,0 c -8.624,5.863 -19.669,3.472 -25.466,-5.345 -4.844,-7.364 -12.154,-8.278 -14.986,-8.278 -9.224,0 -15.539,6.49 -17.409,13.205 h -0.005 c -0.019,0.067 -0.031,0.121 -0.05,0.186 -0.019,0.076 -0.042,0.15 -0.06,0.229 -0.735,2.802 -0.916,4.141 -0.916,7.119 0,16.061 16.472,33.939 40.208,33.939 24.3,0 38.204,-18.498 41.787,-28.782 -0.062,0.182 -0.118,0.362 -0.181,0.547 -6.899,20.108 -25.966,34.569 -48.416,34.569 -28.256,0 -51.171,-22.909 -51.171,-51.17 0,-25.261 18.221,-46.886 43.493,-46.886 20.158,0 33.704,11.305 39.919,26.877 C 10.155,-15.271 7.739,-5.26 0,0" /></g><g
           transform="translate(144.1743,70.6709)"
           id="g24"><path
             id="path26"
             style="fill:#e41e37;fill-opacity:1;fill-rule:nonzero;stroke:none"
             d="m 0,0 c -2.987,10.029 -16.997,29.779 -42.105,29.779 -23.736,0 -40.208,-17.878 -40.208,-33.938 0,-2.979 0.181,-4.318 0.916,-7.119 -0.308,1.225 -0.472,2.454 -0.472,3.651 0,16.724 16.748,28.314 33.96,28.314 23.304,0 42.193,-18.892 42.193,-42.19 0,-18.267 -10.511,-34.074 -25.786,-41.672 l 0.006,-0.012 c 19.686,7.13 33.747,25.986 33.747,48.13 C 2.251,-9.816 1.548,-5.195 0,0" /></g><g
           transform="translate(204.2427,49.7939)"
           id="g28"><path
             id="path30"
             style="fill:#5c5c5b;fill-opacity:1;fill-rule:nonzero;stroke:none"
             d="M 0,0 H -5.042 V 26.179 H 0 v -9.4 H 5.87 V 11.782 H 0 Z M -26.452,-0.229 V -9.398 H 1.056 v -4.494 H -31.542 V -0.229 Z M -21.548,26.408 -8.94,6.28 -12.973,3.714 -21.548,17.742 -29.982,3.347 -34.108,5.96 Z" /></g><g
           transform="translate(244.6797,75.9727)"
           id="g32"><path
             id="path34"
             style="fill:#5c5c5b;fill-opacity:1;fill-rule:nonzero;stroke:none"
             d="M 0,0 H 5.089 V -19.439 H 0 v 7.702 H -6.922 V -7.29 H 0 Z m 0.092,-30.305 h -22.145 v -5.639 H 0.092 Z m -14.349,20.08 c 0,1.498 -0.537,2.783 -1.606,3.852 -1.068,1.068 -2.35,1.604 -3.85,1.604 -1.498,0 -2.773,-0.536 -3.828,-1.604 -1.053,-1.069 -1.582,-2.354 -1.582,-3.852 0,-1.499 0.529,-2.772 1.582,-3.828 1.055,-1.053 2.33,-1.581 3.828,-1.581 1.5,0 2.782,0.528 3.85,1.581 1.069,1.056 1.606,2.329 1.606,3.828 M -27.05,-22.282 h 4.997 v -4.033 H 0.092 v 4.033 H 5.089 V -40.07 H -27.05 Z m 17.652,12.057 c 0,-1.345 -0.275,-2.605 -0.826,-3.781 -0.549,-1.177 -1.283,-2.21 -2.201,-3.095 -0.949,-0.886 -2.047,-1.59 -3.301,-2.109 -1.25,-0.519 -2.58,-0.779 -3.987,-0.779 -1.407,0 -2.735,0.26 -3.989,0.779 -1.252,0.519 -2.353,1.223 -3.301,2.109 -0.917,0.885 -1.65,1.918 -2.2,3.095 -0.55,1.176 -0.827,2.436 -0.827,3.781 0,1.345 0.277,2.614 0.827,3.806 0.55,1.192 1.283,2.215 2.2,3.071 0.948,0.918 2.049,1.635 3.301,2.156 1.254,0.518 2.582,0.779 3.989,0.779 1.407,0 2.737,-0.261 3.987,-0.779 1.254,-0.521 2.352,-1.238 3.301,-2.156 0.918,-0.856 1.652,-1.879 2.201,-3.071 0.551,-1.192 0.826,-2.461 0.826,-3.806" /></g><g
           transform="translate(280.6694,42.5957)"
           id="g36"><path
             id="path38"
             style="fill:#5c5c5b;fill-opacity:1;fill-rule:nonzero;stroke:none"
             d="M 0,0 C 0,1.376 -0.49,2.561 -1.466,3.554 -2.443,4.546 -3.635,5.043 -5.043,5.043 -6.45,5.043 -7.649,4.546 -8.64,3.554 -9.635,2.561 -10.132,1.376 -10.132,0 c 0,-1.375 0.497,-2.553 1.492,-3.529 0.991,-0.978 2.19,-1.468 3.597,-1.468 1.408,0 2.6,0.49 3.577,1.468 C -0.49,-2.553 0,-1.375 0,0 M 4.906,-0.045 C 4.906,-1.329 4.639,-2.537 4.105,-3.667 3.57,-4.798 2.856,-5.776 1.971,-6.602 1.054,-7.457 0,-8.138 -1.192,-8.642 c -1.191,-0.504 -2.476,-0.755 -3.851,-0.755 -1.374,0 -2.665,0.251 -3.872,0.755 -1.209,0.504 -2.271,1.185 -3.188,2.04 -0.886,0.826 -1.599,1.804 -2.13,2.935 -0.537,1.13 -0.804,2.338 -0.804,3.622 0,1.283 0.267,2.483 0.804,3.599 0.531,1.116 1.244,2.086 2.13,2.911 0.917,0.855 1.979,1.536 3.188,2.04 1.207,0.505 2.498,0.756 3.872,0.756 1.375,0 2.66,-0.251 3.851,-0.756 C 0,8.001 1.054,7.32 1.971,6.465 2.856,5.64 3.57,4.67 4.105,3.554 4.639,2.438 4.906,1.238 4.906,-0.045 m 8.757,10.04 h -37.595 v 4.172 h 16.276 v 2.658 H -20.905 V 32.918 H 10.591 V 28.746 H -15.954 V 26.729 H 10.591 V 22.924 H -15.954 V 20.86 H 10.682 V 16.825 H -2.659 v -2.658 h 16.322 z" /></g><g
           transform="translate(332.2368,68.6826)"
           id="g40"><path
             id="path42"
             style="fill:#5c5c5b;fill-opacity:1;fill-rule:nonzero;stroke:none"
             d="M 0,0 H 5.868 V -4.997 H 0 v -8.665 H -5.043 V 7.29 L 0,7.29 Z m -7.014,-24.849 c 0,1.527 -0.565,2.843 -1.698,3.943 -1.13,1.101 -2.461,1.65 -3.988,1.65 -1.528,0 -2.849,-0.549 -3.964,-1.65 -1.119,-1.1 -1.674,-2.416 -1.674,-3.943 0,-1.558 0.555,-2.88 1.674,-3.965 1.115,-1.085 2.436,-1.627 3.964,-1.627 1.527,0 2.858,0.542 3.988,1.627 1.133,1.085 1.698,2.407 1.698,3.965 m 4.951,-0.046 c 0,-1.375 -0.283,-2.666 -0.847,-3.874 -0.569,-1.208 -1.309,-2.269 -2.226,-3.186 -0.976,-0.916 -2.115,-1.643 -3.411,-2.178 -1.303,-0.533 -2.672,-0.802 -4.107,-0.802 -1.435,0 -2.812,0.269 -4.126,0.802 -1.315,0.535 -2.462,1.262 -3.439,2.178 -0.949,0.917 -1.703,1.978 -2.267,3.186 -0.569,1.208 -0.85,2.499 -0.85,3.874 0,1.375 0.281,2.667 0.85,3.874 0.564,1.209 1.318,2.27 2.267,3.187 0.977,0.917 2.124,1.644 3.439,2.178 1.314,0.534 2.691,0.802 4.126,0.802 1.435,0 2.804,-0.268 4.107,-0.802 1.296,-0.534 2.435,-1.261 3.411,-2.178 0.917,-0.917 1.657,-1.978 2.226,-3.187 0.564,-1.207 0.847,-2.499 0.847,-3.874 m -11.278,11.966 -8.528,12.425 -8.483,-12.745 -4.08,2.705 12.563,18.338 12.608,-17.926 z" /></g><g
           transform="translate(375.0562,35.0771)"
           id="g44"><path
             id="path46"
             style="fill:#5c5c5b;fill-opacity:1;fill-rule:nonzero;stroke:none"
             d="M 0,0 H -5.042 V 40.896 H 0 V 25.032 h 5.869 v -5.089 l -5.869,0 z m -33.788,33.881 v 4.492 h 24.39 V 33.881 H -19.667 L -8.298,7.152 -12.745,5.227 -21.501,26.133 -30.12,4.906 l -4.584,1.925 11.371,27.05 z" /></g><g
           transform="translate(414.9883,60.2012)"
           id="g48"><path
             id="path50"
             style="fill:#5c5c5b;fill-opacity:1;fill-rule:nonzero;stroke:none"
             d="M 0,0 H -5.822 V 4.172 H 0 V 15.771 H 5.044 V -13.754 H 0 Z m -12.423,7.061 c 0,1.376 -0.491,2.543 -1.468,3.506 -0.976,0.962 -2.168,1.445 -3.576,1.445 -1.408,0 -2.599,-0.483 -3.575,-1.445 -0.978,-0.963 -1.466,-2.13 -1.466,-3.506 0,-1.376 0.488,-2.545 1.466,-3.507 0.976,-0.963 2.167,-1.445 3.575,-1.445 1.408,0 2.6,0.482 3.576,1.445 0.977,0.962 1.468,2.131 1.468,3.507 m 4.812,0.045 c 0,-1.253 -0.267,-2.437 -0.798,-3.552 -0.537,-1.117 -1.25,-2.103 -2.135,-2.958 -0.886,-0.825 -1.925,-1.484 -3.118,-1.971 -1.191,-0.49 -2.461,-0.733 -3.805,-0.733 -1.344,0 -2.613,0.243 -3.805,0.733 -1.192,0.487 -2.247,1.146 -3.164,1.971 -0.856,0.855 -1.551,1.841 -2.083,2.958 -0.536,1.115 -0.805,2.299 -0.805,3.552 0,1.252 0.269,2.43 0.805,3.53 0.532,1.101 1.227,2.078 2.083,2.934 0.917,0.856 1.972,1.521 3.164,1.994 1.192,0.475 2.461,0.711 3.805,0.711 1.344,0 2.614,-0.236 3.805,-0.711 1.193,-0.473 2.232,-1.138 3.118,-1.994 0.885,-0.856 1.598,-1.833 2.135,-2.934 0.531,-1.1 0.798,-2.278 0.798,-3.53 m -15.45,-18.475 v -8.528 H 6.145 v -4.402 h -34.293 v 12.93 z m 8.529,3.575 v -5.502 h -5.044 v 5.502 h -11.141 v 4.218 h 27.279 v -4.218 z" /></g><path
           id="path52"
           style="fill:#5c5c5b;fill-opacity:1;fill-rule:nonzero;stroke:none"
           d="m 457.077,65.73 h -21.503 v -5.639 h 21.503 z m -21.503,4.402 h 21.503 v 5.181 h 5.043 V 55.645 h -31.543 v 19.668 h 4.997 z m -8.023,-19.989 h 37.594 V 45.65 H 448.87 V 35.105 h -5.089 V 45.65 h -16.23 z" /></g></g></g></svg>