<?xml version="1.0" encoding="UTF-8" standalone="no"?>
<svg
   xmlns:dc="http://purl.org/dc/elements/1.1/"
   xmlns:cc="http://creativecommons.org/ns#"
   xmlns:rdf="http://www.w3.org/1999/02/22-rdf-syntax-ns#"
   xmlns:svg="http://www.w3.org/2000/svg"
   xmlns="http://www.w3.org/2000/svg"
   viewBox="0 0 689.17865 152.51466"
   height="152.51466"
   width="689.17865"
   xml:space="preserve"
   id="svg2"
   version="1.1"><metadata
     id="metadata8"><rdf:RDF><cc:Work
         rdf:about=""><dc:format>image/svg+xml</dc:format><dc:type
           rdf:resource="http://purl.org/dc/dcmitype/StillImage" /></cc:Work></rdf:RDF></metadata><defs
     id="defs6"><clipPath
       id="clipPath18"
       clipPathUnits="userSpaceOnUse"><path
         id="path16"
         d="M 0,114.386 H 516.884 V 0 H 0 Z" /></clipPath></defs><g
     transform="matrix(1.3333333,0,0,-1.3333333,0,152.51467)"
     id="g10"><g
       id="g12"><g
         clip-path="url(#clipPath18)"
         id="g14"><g
           transform="translate(111.9072,61.0244)"
           id="g20"><path
             id="path22"
             style="fill:#194067;fill-opacity:1;fill-rule:nonzero;stroke:none"
             d="m 0,0 c -7.312,4.97 -16.674,2.945 -21.596,-4.526 -4.094,-6.245 -10.291,-7.021 -12.678,-7.021 -7.83,0 -13.171,5.502 -14.76,11.195 h -0.005 c -0.019,0.061 -0.029,0.11 -0.044,0.161 -0.018,0.065 -0.028,0.127 -0.049,0.191 -0.624,2.381 -0.782,3.511 -0.782,6.035 0,13.603 13.968,28.754 34.069,28.754 20.594,0 32.378,-15.674 35.424,-24.39 -0.062,0.164 -0.111,0.31 -0.16,0.465 -5.843,17.043 -22.002,29.289 -41.036,29.289 -23.934,0 -43.348,-19.399 -43.348,-43.355 0,-21.406 15.439,-39.724 36.858,-39.724 17.076,0 28.556,9.572 33.814,22.77 C 8.598,-12.933 6.556,-4.453 0,0" /></g><g
           transform="translate(131.7524,70.583)"
           id="g24"><path
             id="path26"
             style="fill:#e41e37;fill-opacity:1;fill-rule:nonzero;stroke:none"
             d="m 0,0 c -2.541,8.501 -14.402,25.23 -35.69,25.23 -20.101,0 -34.069,-15.151 -34.069,-28.753 0,-2.525 0.158,-3.655 0.782,-6.036 -0.26,1.045 -0.395,2.08 -0.395,3.095 0,14.173 14.186,23.987 28.77,23.987 19.748,0 35.754,-16.007 35.754,-35.747 0,-15.471 -8.907,-28.874 -21.843,-35.309 v -0.011 c 16.682,6.039 28.593,22.023 28.593,40.783 C 1.902,-8.32 1.307,-4.401 0,0" /></g><g
           transform="translate(179.771,44.1211)"
           id="g28"><path
             id="path30"
             style="fill:#5c5c5b;fill-opacity:1;fill-rule:nonzero;stroke:none"
             d="M 0,0 C 0,1.494 -0.547,2.791 -1.643,3.885 -2.79,4.931 -4.084,5.48 -5.579,5.48 -7.072,5.48 -8.367,4.931 -9.462,3.885 -10.608,2.791 -11.155,1.494 -11.155,0 c 0,-1.493 0.547,-2.785 1.693,-3.834 1.095,-1.094 2.39,-1.642 3.883,-1.642 1.495,0 2.789,0.548 3.936,1.642 C -0.547,-2.785 0,-1.493 0,0 M 11.554,30.132 H -3.088 l 15.439,-8.218 -2.441,-3.983 -15.489,8.266 -15.487,-8.266 -2.441,3.983 15.439,8.218 h -14.641 v 4.582 H 11.554 Z M -8.317,9.762 v 2.591 h -17.182 v 4.63 h 39.842 v -4.63 H -2.889 V 9.762 C -2.392,9.613 -1.844,9.463 -1.345,9.263 -0.05,8.714 1.096,8.021 2.092,7.125 3.087,6.179 3.885,5.135 4.482,3.937 5.03,2.69 5.328,1.396 5.328,0 c 0,-1.394 -0.298,-2.689 -0.846,-3.885 -0.597,-1.243 -1.395,-2.34 -2.39,-3.233 -0.996,-0.9 -2.142,-1.645 -3.437,-2.145 -1.344,-0.545 -2.739,-0.798 -4.234,-0.798 -1.493,0 -2.937,0.253 -4.232,0.798 -1.344,0.5 -2.49,1.245 -3.438,2.145 -0.994,0.893 -1.792,1.99 -2.34,3.233 -0.598,1.196 -0.895,2.491 -0.895,3.885 0,1.396 0.297,2.69 0.895,3.937 0.548,1.198 1.346,2.242 2.34,3.188 0.948,0.896 2.094,1.589 3.438,2.138 0.499,0.2 0.996,0.35 1.494,0.499" /></g><g
           transform="translate(218.6235,70.417)"
           id="g32"><path
             id="path34"
             style="fill:#5c5c5b;fill-opacity:1;fill-rule:nonzero;stroke:none"
             d="m 0,0 -14.442,-18.078 -4.184,3.136 L 0,8.317 18.626,-14.942 14.442,-18.078 Z m -2.739,-26.443 v 12.449 h 5.428 v -12.449 h 17.232 v -4.781 h -39.842 v 4.781 z" /></g><path
           id="path36"
           style="fill:#5c5c5b;fill-opacity:1;fill-rule:nonzero;stroke:none"
           d="m 277.445,79.382 h 5.181 v -27.79 h -5.181 z m -8.266,-0.049 h 5.08 V 51.84 h -5.08 v 13.248 h -4.532 v 4.732 h 4.532 z M 258.622,67.579 h -8.615 v -7.52 h 8.615 z M 246.718,36.852 v 14.493 h 5.38 v -9.713 h 30.927 v -4.78 z m 16.933,18.576 h -18.775 v 23.01 h 5.13 V 72.21 h 8.616 v 6.228 h 5.029 z" /><g
           transform="translate(322.1758,57.3682)"
           id="g38"><path
             id="path40"
             style="fill:#5c5c5b;fill-opacity:1;fill-rule:nonzero;stroke:none"
             d="M 0,0 H -8.368 V 4.783 H 0 V 22.014 H 5.377 V -21.361 H 0 Z m -22.712,17.434 v 4.63 h 5.777 v -4.63 h 10.36 v -4.635 h -11.006 l 11.903,-26.641 -4.483,-1.993 -9.663,22.012 -9.56,-22.362 -4.581,2.044 11.903,26.94 h -11.456 v 4.635 z" /></g><path
           id="path42"
           style="fill:#5c5c5b;fill-opacity:1;fill-rule:nonzero;stroke:none"
           d="m 366.604,79.382 h 5.379 V 36.007 h -5.379 z M 355.749,41.684 h -5.379 v 30.177 h -16.635 v 4.83 h 22.014 z" /><g
           transform="translate(405.1587,70.3691)"
           id="g44"><path
             id="path46"
             style="fill:#5c5c5b;fill-opacity:1;fill-rule:nonzero;stroke:none"
             d="m 0,0 h 6.873 v 9.013 h 5.378 V -13.946 H 6.873 v 9.213 l -6.873,0 z m 6.973,-23.656 h -23.408 v -5.377 H 6.973 Z M -6.574,-2.342 c 0,1.744 -0.647,3.237 -1.842,4.532 -1.295,1.246 -2.791,1.893 -4.532,1.893 -1.794,0 -3.287,-0.647 -4.532,-1.893 -1.294,-1.295 -1.894,-2.788 -1.894,-4.532 0,-1.792 0.6,-3.285 1.894,-4.482 1.245,-1.297 2.738,-1.893 4.532,-1.893 1.741,0 3.237,0.596 4.532,1.893 1.195,1.197 1.842,2.69 1.842,4.482 m -15.14,-12.849 h 5.278 v -4.083 H 6.973 v 4.083 h 5.278 v -18.327 h -33.965 z m 20.319,12.849 c 0,-1.544 -0.296,-2.989 -0.895,-4.283 -0.648,-1.347 -1.494,-2.49 -2.541,-3.487 -1.044,-0.994 -2.241,-1.792 -3.635,-2.34 -1.444,-0.598 -2.938,-0.896 -4.532,-0.896 -1.595,0 -3.087,0.298 -4.482,0.896 -1.444,0.548 -2.689,1.346 -3.686,2.34 -1.096,0.997 -1.892,2.14 -2.488,3.487 -0.649,1.294 -0.947,2.739 -0.947,4.283 0,1.495 0.298,2.938 0.947,4.333 0.596,1.293 1.392,2.489 2.488,3.486 0.997,0.997 2.242,1.793 3.686,2.39 1.395,0.549 2.887,0.846 4.482,0.846 1.594,0 3.088,-0.297 4.532,-0.846 1.394,-0.597 2.591,-1.393 3.635,-2.39 1.047,-0.997 1.893,-2.193 2.541,-3.486 0.599,-1.395 0.895,-2.838 0.895,-4.333" /></g><path
           id="path48"
           style="fill:#5c5c5b;fill-opacity:1;fill-rule:nonzero;stroke:none"
           d="m 456.163,68.476 h -22.81 V 62.5 h 22.81 z m -22.809,4.68 h 22.809 v 5.48 h 5.33 V 57.769 h -33.468 v 20.867 h 5.329 z M 424.839,51.942 H 464.68 V 47.16 H 447.447 V 36.007 h -5.428 V 47.16 h -17.18 z" /></g></g></g></svg>